# xmcd
# 
# Track frame offsets:
#     150
#     26222
#     47377
#     73555
#     101727
#     126795
#     151295
#     169565
#     184782
#     205652
#     229945
# 
# Disc length: 3343
# 
# Revision: 3
# Processed by: cddbd v1.5.2PL0 Copyright (c) Steve Scherf et al.
# Submitted via: BonkEnc v1.0.8
# 
DISCID=8c0d0d0b
DTITLE=Mark Ford - Robben Ford - Mark Ford and The Blue Line featuring Robben Ford
DYEAR=1998
DGENRE=Blues
TTITLE0=Gimme Some
TTITLE1=Try'n to Get Away
TTITLE2=Get a Woman that Loves Me
TTITLE3=Illusory World
TTITLE4=Heart of Stone
TTITLE5=Words of the Preacher
TTITLE6=Breakin' in the Fast Lane
TTITLE7=Don't You Love Me?
TTITLE8=Feelin' Disconnected
TTITLE9=Projecting My Love
TTITLE10=Wanna Be The Man
EXTD=
EXTT0=
EXTT1=
EXTT2=
EXTT3=
EXTT4=
EXTT5=
EXTT6=
EXTT7=
EXTT8=
EXTT9=
EXTT10=
PLAYORDER=
